<svg width="126" height="20" viewBox="0 0 126 20" fill="none" xmlns="http://www.w3.org/2000/svg">
<path d="M30.2049 19.7135V0H29.5451L15.0881 9.25501L0.68843 0H0V19.7135H5.3927V9.05444L14.7439 15.0143H15.4036L24.8122 8.96848V19.7135H30.2049Z" fill="white"/>
<path d="M48.3779 19.7135L43.2147 0.171919H37.822L32.6588 19.7135H37.6212L38.3096 16.3324H42.5836L43.3007 19.7135H48.3779ZM41.8952 12.4642H38.9981L40.4323 5.32951L41.8952 12.4642Z" fill="white"/>
<path d="M65.0706 0.401146H60.1942V8.79656L51.5314 0.114613H50.8143V19.7135H55.7194V11.2894L64.3821 20H65.0706V0.401146Z" fill="white"/>
<path d="M81.3033 19.0831V9.28367H76.6278V15.8453C76.427 15.9312 76.1401 15.9599 75.882 15.9599C73.5585 15.9599 72.9274 13.0946 72.9274 10.2006C72.9274 6.73352 74.0175 4.3553 78.3488 4.3553C79.0086 4.3553 79.7544 4.38395 80.5002 4.41261L80.6436 0.315186C79.7257 0.229227 78.8078 0.200572 77.8899 0.200572C69.8869 0.200572 67.9363 5.24355 67.9363 9.82808C67.9363 15.5587 70.5753 19.914 76.3983 19.914C78.1194 19.914 79.8117 19.5989 81.3033 19.0831Z" fill="white"/>
<path d="M98.9401 19.7135L93.7769 0.171919H88.3842L83.221 19.7135H88.1834L88.8718 16.3324H93.1458L93.8629 19.7135H98.9401ZM92.4574 12.4642H89.5603L90.9945 5.32951L92.4574 12.4642Z" fill="white"/>
<path d="M110.998 4.52722V0.401146H98.2329V4.52722H102.163V19.7135H107.068V4.52722H110.998Z" fill="white"/>
<path d="M126 19.7135L120.837 0.171919H115.444L110.281 19.7135H115.243L115.932 16.3324H120.206L120.923 19.7135H126ZM119.517 12.4642H116.62L118.054 5.32951L119.517 12.4642Z" fill="white"/>
<path d="M30.2049 0.00561507V0H29.5451L27.7893 1.12408C28.2569 0.964091 29.1205 0.626541 30.2049 0.00561507Z" fill="#F79D1D"/>
<path d="M30.2049 4.8974C28.4476 5.98351 27.176 6.32879 27.1588 6.32879L27.1052 6.34507C23.5027 7.77602 20.5811 7.70737 18.3959 7.13744L17.3947 7.77843C19.8268 8.59614 23.2204 8.90441 27.4406 7.2344C27.6444 7.17617 28.7168 6.85774 30.2049 6.00561V4.8974Z" fill="#F79D1D"/>
<path d="M90.2542 0.171919C90.8819 1.61116 91.4351 3.08181 91.9117 4.57807L91.9419 4.66421C92.6522 6.72689 93.9282 8.25178 95.642 9.05496C95.819 9.1379 95.9995 9.21252 96.1831 9.27882L95.8799 8.1313C94.4833 7.41816 93.428 6.11778 92.8245 4.35923L92.7942 4.27309C92.3478 2.88218 91.8351 1.51357 91.258 0.171919H90.2542Z" fill="#F79D1D"/>
<path d="M92.6147 0.171919C93.0741 0.985889 93.6464 1.67567 94.3189 2.22333L93.8174 0.325272C93.8174 0.325285 93.8174 0.32526 93.8174 0.325272C93.7814 0.274878 93.746 0.223734 93.7112 0.171919H92.6147Z" fill="#F79D1D"/>
<path d="M110.27 0.401146C109.418 1.43304 108.587 2.48303 107.773 3.51207L107.399 3.98457C107.06 4.41352 106.72 4.84288 106.379 5.2695C105.077 6.89729 103.691 8.05787 102.163 8.79401V7.74558C103.407 7.06527 104.558 6.05534 105.655 4.68516L106.982 3.01359C107.663 2.15085 108.358 1.2728 109.067 0.401146H110.27Z" fill="#F79D1D"/>
<path d="M105.388 0.401146C104.155 1.67935 102.84 2.57555 101.398 3.12249C100.337 3.52547 99.2635 3.70791 98.2329 3.67017V2.73199C99.1486 2.76854 100.111 2.60634 101.07 2.24946C102.124 1.84925 103.109 1.23857 104.046 0.401146H105.388Z" fill="#F79D1D"/>
</svg>
