<svg width="126" height="20" viewBox="0 0 126 20" fill="none" xmlns="http://www.w3.org/2000/svg">
<path d="M30.2049 19.7135V0H29.5451L15.0881 9.25501L0.68843 0H0V19.7135H5.3927V9.05444L14.7439 15.0143H15.4036L24.8122 8.96848V19.7135H30.2049Z" fill="white"/>
<path d="M48.3779 19.7135L43.2147 0.171919H37.822L32.6588 19.7135H37.6212L38.3096 16.3324H42.5836L43.3007 19.7135H48.3779ZM41.8952 12.4642H38.9981L40.4323 5.32951L41.8952 12.4642Z" fill="white"/>
<path d="M65.0706 0.401146H60.1942V8.79656L51.5314 0.114613H50.8143V19.7135H55.7194V11.2894L64.3821 20H65.0706V0.401146Z" fill="white"/>
<path d="M81.3033 19.0831V9.28367H76.6278V15.8453C76.427 15.9312 76.1401 15.9599 75.882 15.9599C73.5585 15.9599 72.9274 13.0946 72.9274 10.2006C72.9274 6.73352 74.0175 4.3553 78.3488 4.3553C79.0086 4.3553 79.7544 4.38395 80.5002 4.41261L80.6436 0.315186C79.7257 0.229227 78.8078 0.200572 77.8899 0.200572C69.8869 0.200572 67.9363 5.24355 67.9363 9.82808C67.9363 15.5587 70.5753 19.914 76.3983 19.914C78.1194 19.914 79.8117 19.5989 81.3033 19.0831Z" fill="white"/>
<path d="M98.9401 19.7135L93.7769 0.171919H88.3842L83.221 19.7135H88.1834L88.8718 16.3324H93.1458L93.8629 19.7135H98.9401ZM92.4574 12.4642H89.5603L90.9945 5.32951L92.4574 12.4642Z" fill="white"/>
<path d="M110.998 4.52722V0.401146H98.2329V4.52722H102.163V19.7135H107.068V4.52722H110.998Z" fill="white"/>
<path d="M126 19.7135L120.837 0.171919H115.444L110.281 19.7135H115.243L115.932 16.3324H120.206L120.923 19.7135H126ZM119.517 12.4642H116.62L118.054 5.32951L119.517 12.4642Z" fill="white"/>
</svg>
